<?xml version="1.0" encoding="UTF-8"?>
<svg id="Layer_1" data-name="Layer 1" xmlns="http://www.w3.org/2000/svg" viewBox="0 0 120.71 57.79">
  <defs>
    <style>
      .cls-1, .cls-2 {
        fill: #fff;
      }

      .cls-2 {
        font-family: RichmondText-Medium, 'Richmond Text';
        font-size: 11.49px;
        font-weight: 500;
      }
    </style>
  </defs>
  <text class="cls-2" transform="translate(81.1 47.38)"><tspan x="0" y="0">X</tspan></text>
  <g>
    <path class="cls-1" d="M56.27,31.11l.39.15c-.78,2.74-2.94,4.41-5.7,4.41-3.61,0-6.43-2.64-6.43-6.31s2.79-6.26,6.4-6.26,5.87,2.5,5.87,6.26h-9.85c.1,2.72,2.04,4.97,4.9,4.97,1.99,0,3.57-1.12,4.41-3.23M46.96,28.52h7.62c-.1-3.59-1.33-4.98-3.64-4.98s-3.88,1.61-3.98,4.98"/>
    <path class="cls-1" d="M29.36,31.11l.39.15c-.78,2.74-2.94,4.41-5.7,4.41-3.61,0-6.43-2.64-6.43-6.31s2.79-6.26,6.4-6.26,5.87,2.5,5.87,6.26h-9.85c.1,2.72,2.04,4.97,4.9,4.97,1.99,0,3.57-1.12,4.41-3.23M20.05,28.52h7.62c-.1-3.59-1.33-4.98-3.64-4.98s-3.88,1.61-3.98,4.98"/>
    <path class="cls-1" d="M72.44,34.89v.48h-5.68v-.48l1.8-.4v-6.93c0-2.04-.92-3.15-2.67-3.15-2.21,0-3.47,1.8-3.47,4.24v5.84l1.8.4v.48h-5.68v-.48l1.61-.4v-10.19l-1.61-.43v-.49l3.89-.36v3.68c.53-2.23,2.04-3.61,4.44-3.61s3.98,1.48,3.98,4.41v6.98l1.61.4Z"/>
    <path class="cls-1" d="M88.43,34.89v.48h-3.89v-3.49c-.65,2.33-2.62,3.78-5.02,3.78-3.23,0-5.6-2.43-5.6-6.28s2.38-6.28,5.6-6.28c2.4,0,4.37,1.46,5.02,3.76v-5.9l-1.63-.47v-.44l3.89-.36v14.8l1.63.4ZM84.54,29.41v-.1c0-3.08-1.89-5.09-4.12-5.09s-4.07,2.11-4.07,5.17,1.75,5.17,4.07,5.17,4.12-2.06,4.12-5.14"/>
    <polygon class="cls-1" points="15.93 32.45 14.34 34.53 10.03 34.53 10.03 19.66 6.07 20.05 6.07 20.53 7.68 20.96 7.68 34.49 6.07 34.89 6.07 35.38 16.43 35.38 16.43 32.45 15.93 32.45"/>
    <path class="cls-1" d="M38.88,32.32h-3.91c-.8,0-1.29-.36-1.29-.99,0-.41.22-.8.51-1.16.78.41,1.72.66,2.79.66,2.94,0,4.92-1.8,4.92-3.86,0-.9-.37-1.73-1.01-2.4l2.52-3.16-.1-.12-3.93,2.3c-.26-.11-.5-.22-.78-.29-.26-.06-.53-.11-.8-.14-.27-.03-.54-.05-.82-.05-2.91,0-4.92,1.75-4.92,3.86,0,1.16.63,2.21,1.67,2.94-.85.56-1.53,1.26-1.53,2.23,0,1.09.65,1.8,1.62,2.11-1.79.31-2.79,1.16-2.79,2.52,0,1.87,1.82,2.86,5.46,2.86h.05c4.05,0,6.67-1.58,6.67-4.12,0-2.11-1.38-3.18-4.34-3.18M36.99,23.61c1.84,0,2.72,1.41,2.72,3.35s-.87,3.32-2.72,3.32-2.69-1.43-2.69-3.32.87-3.35,2.69-3.35M36.65,39.14h-.05c-2.57,0-3.98-.99-3.98-2.52,0-1.7,1.46-2.18,3.37-2.18h2.59c1.82,0,2.77.63,2.77,1.96,0,1.6-1.82,2.74-4.71,2.74"/>
    <path class="cls-1" d="M94.55,31.66c0,2.04,1.65,3.68,3.68,3.68h11.57v-7.3h-7.93v-7.98h-7.32v11.6Z"/>
    <polygon class="cls-1" points="101.87 12.5 95.04 19.37 101.87 19.37 101.87 12.5"/>
    <polygon class="cls-1" points="117.41 28.03 110.49 28.03 110.49 34.92 117.41 28.03"/>
    <polygon class="cls-1" points="117.87 12.03 102.57 12.03 102.57 19.37 102.57 19.39 110.5 19.39 110.5 27.34 117.87 27.34 117.87 12.03"/>
  </g>
</svg>