<?xml version="1.0" encoding="UTF-8"?>
<svg id="Layer_1" data-name="Layer 1" xmlns="http://www.w3.org/2000/svg" viewBox="0 0 140.62 54.06">
  <defs>
    <style>
      .cls-1 {
        fill: #1c252d;
      }

      .cls-2 {
        font-family: RichmondText-Medium, 'Richmond Text';
        font-size: 10.85px;
        font-weight: 500;
      }

      .cls-3 {
        fill: #2c1b47;
      }

      .cls-4 {
        fill: #f08900;
      }

      .cls-5 {
        fill: #5e366d;
      }
    </style>
  </defs>
  <text class="cls-2" transform="translate(88.36 42.49)"><tspan x="0" y="0">X</tspan></text>
  <path class="cls-1" d="M64.93,27.12l.37.14c-.73,2.59-2.77,4.17-5.38,4.17-3.41,0-6.07-2.49-6.07-5.95s2.63-5.91,6.04-5.91,5.54,2.36,5.54,5.91h-9.29c.09,2.56,1.92,4.69,4.62,4.69,1.88,0,3.36-1.05,4.17-3.04ZM56.14,24.67h7.19c-.09-3.39-1.26-4.7-3.43-4.7s-3.66,1.52-3.75,4.7Z"/>
  <path class="cls-1" d="M39.54,27.12l.37.14c-.73,2.59-2.77,4.17-5.38,4.17-3.41,0-6.07-2.49-6.07-5.95s2.63-5.91,6.04-5.91,5.54,2.36,5.54,5.91h-9.29c.09,2.56,1.92,4.69,4.62,4.69,1.88,0,3.36-1.05,4.17-3.04ZM30.75,24.67h7.19c-.09-3.39-1.26-4.7-3.43-4.7s-3.66,1.52-3.75,4.7Z"/>
  <path class="cls-1" d="M80.18,30.69v.46h-5.36v-.46l1.69-.38v-6.54c0-1.92-.87-2.98-2.52-2.98-2.08,0-3.27,1.69-3.27,4.01v5.51l1.69.38v.46h-5.36v-.46l1.52-.38v-9.61l-1.52-.4v-.46l3.67-.34v3.47c.5-2.11,1.92-3.41,4.19-3.41s3.75,1.4,3.75,4.17v6.58l1.52.38Z"/>
  <path class="cls-1" d="M95.27,30.69v.46h-3.67v-3.3c-.62,2.2-2.47,3.57-4.74,3.57-3.04,0-5.29-2.29-5.29-5.93s2.24-5.93,5.29-5.93c2.27,0,4.12,1.37,4.74,3.55v-5.57l-1.54-.45v-.41l3.67-.34v13.97l1.54.38ZM91.6,25.51v-.09c0-2.91-1.79-4.81-3.89-4.81s-3.85,1.99-3.85,4.88,1.65,4.88,3.85,4.88,3.89-1.95,3.89-4.85Z"/>
  <polygon class="cls-1" points="26.86 28.39 25.37 30.35 21.3 30.35 21.3 16.32 17.56 16.68 17.56 17.14 19.08 17.54 19.08 30.31 17.56 30.69 17.56 31.14 27.34 31.14 27.34 28.39 26.86 28.39"/>
  <path class="cls-1" d="M48.52,28.26h-3.69c-.75,0-1.21-.34-1.21-.94,0-.39.21-.75.48-1.1.73.39,1.62.62,2.63.62,2.77,0,4.65-1.69,4.65-3.64,0-.85-.35-1.63-.95-2.26l2.37-2.98-.1-.12-3.71,2.17c-.24-.1-.48-.21-.73-.27s-.5-.1-.76-.13-.51-.04-.77-.04c-2.75,0-4.65,1.65-4.65,3.64,0,1.1.59,2.08,1.58,2.77-.8.53-1.44,1.19-1.44,2.11,0,1.03.62,1.69,1.53,1.99-1.69.3-2.63,1.1-2.63,2.38,0,1.76,1.72,2.7,5.15,2.7h.05c3.82,0,6.3-1.49,6.3-3.89,0-1.99-1.31-3-4.1-3ZM46.73,20.04c1.74,0,2.56,1.33,2.56,3.16s-.82,3.14-2.56,3.14-2.54-1.35-2.54-3.14.82-3.16,2.54-3.16ZM46.42,34.69h-.05c-2.43,0-3.75-.94-3.75-2.38,0-1.6,1.37-2.06,3.18-2.06h2.45c1.72,0,2.61.59,2.61,1.85,0,1.51-1.72,2.59-4.44,2.59Z"/>
  <polygon class="cls-3" points="108.38 16.45 101.05 16.45 108.38 9.11 108.38 16.45"/>
  <polygon class="cls-4" points="108.39 9.11 108.39 16.45 115.72 16.45 115.72 23.78 123.06 23.78 123.06 9.11 108.39 9.11"/>
  <path class="cls-5" d="M115.72,23.78v7.33h-11.2c-1.92,0-3.47-1.55-3.47-3.47v-11.2h7.33v7.33h7.33Z"/>
  <polygon class="cls-3" points="115.72 31.12 115.72 23.78 123.05 23.78 115.72 31.12"/>
</svg>